PathFileType	4	(X/Y/Z)	C:\Users\WrightLab\Desktop\Jo\P1_boxCal15.trc
DataRate	CameraRate	NumFrames	NumMarkers	Units	OrigDataRate	OrigDataStartFrame	OrigNumFrames
100.00	100.00	       17	19	mm	100.00	317	       507
Frame#	Time	Headset_Front			Headset_Back			Headset_Left			Headset_Right			Left_Shoulder			Right_Shoulder			Sternum			C7			Left Elbow			Right Elbow			Left Wrist			Right Wrist			Left ASIS			Right ASIS			S2			Left Knee			Right Knee			Left Ankle			Right Ankle			
		X1	Y1	Z1	X2	Y2	Z2	X3	Y3	Z3	X4	Y4	Z4	X5	Y5	Z5	X6	Y6	Z6	X7	Y7	Z7	X8	Y8	Z8	X9	Y9	Z9	X10	Y10	Z10	X11	Y11	Z11	X12	Y12	Z12	X13	Y13	Z13	X14	Y14	Z14	X15	Y15	Z15	X16	Y16	Z16	X17	Y17	Z17	X18	Y18	Z18	X19	Y19	Z19	

317	3.160	-31.87702	906.34015	1284.79333	122.05917	963.98431	1051.34119							-32.47349	1476.45630	1199.40503				-140.22110	1295.77295	1014.96350	-254.25964	1447.88318	1245.46521	-134.22490	1191.07214	1266.98279	-416.04898	1021.81842	1151.06982	-157.63657	1413.27820	1354.91138	-321.49551	1293.09680	1162.00879				-312.05591	460.81656	1198.54834	-306.13040	216.93105	936.80035	-141.78462	910.15228	960.39697	52.21208	495.96649	1235.85583	-236.58363	904.27551	1277.92688	217.01595	797.17822	1121.03674	
318	3.170	-32.44879	907.89313	1294.62708	127.83607	966.72894	1066.87378							-32.23554	1477.90588	1212.87244				-135.80424	1298.22742	1023.34131	-254.21129	1449.60522	1253.02637	-136.54118	1193.26257	1276.37585	-415.71262	1023.49500	1153.45374	-159.60909	1413.58081	1364.01758	-321.00198	1294.61365	1166.84229				-311.76883	469.06100	1217.71338	-299.66962	221.70003	953.10870	-136.22998	912.37360	969.41089	54.24419	493.49823	1238.09265	-237.03633	905.86365	1284.20264	221.73590	799.94452	1139.53259	
319	3.180	-33.75971	908.72076	1303.40002	133.47363	969.14221	1083.77686							-30.76426	1478.73230	1222.29297				-132.08873	1300.66199	1032.59485	-254.30284	1451.30713	1260.63757	-138.17751	1194.70679	1284.36841	-414.93835	1025.15002	1154.85754	-161.32414	1413.80640	1372.96472	-320.41833	1296.08154	1171.41199				-312.37180	475.40237	1235.60950	-295.07291	225.83626	969.37238	-131.64603	915.41620	977.63019	54.72849	491.48065	1240.60303	-237.70703	907.69843	1290.44751	225.50009	803.67352	1158.16235	
320	3.190	-35.33595	910.45062	1312.39221	138.08084	971.97437	1099.50659							-30.55219	1479.84448	1234.22681				-129.57571	1303.08777	1041.41321	-255.83331	1453.12708	1268.32300	-139.19539	1195.78809	1291.73755	-413.76529	1026.70776	1155.62939	-163.55791	1414.61682	1381.71594	-319.87817	1297.71155	1175.81396				-312.84427	480.85733	1252.91296	-288.96225	227.86259	988.54315	-126.70145	917.12659	985.77081	54.41883	490.41568	1242.47583	-239.26086	909.89136	1296.87708	229.50891	807.55780	1177.81812	
321	3.200	-37.03706	912.34357	1322.09937	142.43025	974.15948	1115.05945							-30.23021	1480.93225	1245.41736				-125.33006	1305.04651	1050.40186	-255.95709	1454.88306	1275.85229	-141.46860	1198.21692	1301.62512	-413.02438	1028.32056	1156.32019	-166.19392	1415.75598	1390.59924	-319.53098	1299.44104	1180.33069				-313.39453	486.46085	1268.40027	-283.47073	229.60085	1008.96716	-122.05328	919.93207	993.80988	53.83956	490.50601	1244.44421	-240.04744	911.30310	1302.96899	233.79489	811.38794	1196.24219	
322	3.210	-38.55941	913.25671	1330.26563	146.95616	977.83093	1130.37781							-30.83673	1482.43018	1256.89209				-122.30315	1307.64551	1058.38110	-256.66385	1457.11780	1283.40686	-143.41193	1199.41272	1309.92212	-411.58588	1030.64575	1156.77783	-168.97983	1414.80005	1396.89233	-318.99747	1301.31848	1185.04004				-314.45230	492.12280	1283.73792	-278.86533	230.09218	1029.69641	-119.39279	922.14355	1000.96527	53.07157	490.38138	1247.22241	-241.30649	913.17023	1309.17981	236.82407	815.07916	1214.53784	
323	3.220	-40.60887	915.23944	1338.34692	150.43568	979.89771	1146.65955							-30.65906	1482.59741	1266.02112				-118.41515	1309.37061	1067.78162	-257.38101	1458.98401	1290.97546	-144.79045	1200.49744	1316.66199	-410.69559	1032.43567	1156.86047	-172.01578	1416.40637	1405.93494	-318.58783	1303.06531	1190.04004				-314.72415	498.11816	1296.03845	-273.91241	227.90721	1051.54919	-116.25552	924.20477	1008.52112	53.08481	491.21722	1250.85217	-243.29057	915.14502	1315.81189	240.04163	820.22363	1233.85132	
324	3.230	-42.72144	916.72650	1346.47046	153.86955	982.55884	1161.07922							-31.64269	1484.54407	1277.23206				-115.86101	1311.31799	1077.04932	-258.16492	1460.19897	1298.58350	-146.16946	1201.92273	1325.16260	-409.33081	1034.24646	1156.66150	-173.50392	1417.21826	1412.78271	-317.72260	1304.79077	1195.22424				-315.24188	504.04291	1308.01233	-270.73242	224.75259	1073.42822	-113.19010	926.43793	1016.29498	52.92618	490.63812	1254.40930	-243.66978	916.15955	1322.00940	242.31459	823.45740	1251.97620	
325	3.240	-44.62946	917.27649	1353.41772	157.06622	985.30939	1176.47424							-32.19565	1486.33447	1288.55115				-113.33530	1312.97644	1086.23657	-259.61984	1461.97388	1306.03186	-148.82089	1204.14160	1334.82654	-408.05148	1036.38721	1156.70923	-176.27235	1418.78552	1422.81311	-316.76794	1306.40698	1200.51074				-315.73242	509.16406	1318.87122	-267.06418	219.87224	1096.08655	-111.15124	928.10687	1023.91217	52.34828	490.78806	1259.35498	-245.27553	917.73761	1328.56433	245.29004	827.70526	1270.23328	
326	3.250	-46.80719	918.62970	1359.83154	159.60030	987.39905	1191.21716							-32.74464	1486.30688	1298.51465				-111.62863	1314.54932	1095.49011	-260.88498	1462.98230	1313.55249	-149.55594	1204.81482	1341.48962	-407.37488	1038.42126	1157.24072	-179.47304	1420.46216	1431.19409	-316.42908	1307.92285	1206.20947				-316.54056	514.08539	1328.73413	-264.05579	214.01326	1119.83264	-109.01923	930.08490	1032.66748	52.49167	491.15625	1263.61011	-246.84738	919.33197	1335.39209	247.79472	831.50635	1289.30579	
327	3.260	-49.03971	919.51691	1366.98157	162.18697	989.24188	1206.76941							-33.54694	1487.48877	1308.41443				-109.35151	1316.23328	1104.42993	-261.90042	1464.19263	1320.89478	-150.65315	1205.70190	1349.63416	-405.57681	1040.31787	1158.43860	-182.51025	1420.62268	1439.83008	-315.71567	1309.36072	1212.00073				-316.37784	518.00970	1338.03052	-261.74063	206.93597	1143.48706	-106.68925	931.50000	1039.51990	52.57990	491.18921	1269.26196	-247.54141	920.79004	1342.00757	249.22238	834.91638	1306.50586	
328	3.270	-51.08896	920.74780	1374.38550	166.42706	992.69110	1220.34436							-34.91598	1489.07507	1319.73547				-107.32746	1317.36145	1113.91724	-262.37677	1464.62207	1328.17444	-152.07364	1206.64331	1358.02271	-405.44513	1042.55566	1159.44946	-185.15895	1421.98120	1447.72998	-315.23489	1310.20190	1218.01550				-316.34860	521.57794	1347.06384	-260.18369	199.24286	1168.50073	-104.71418	931.95380	1047.42908	52.15653	490.68250	1273.40710	-248.81816	921.95831	1348.69421	251.41524	839.10809	1324.41309	
329	3.280	-52.17305	921.35217	1381.07959	168.36169	994.28967	1235.18811							-36.87185	1489.31287	1329.77686				-104.81487	1318.15710	1123.14551	-263.95056	1465.49170	1335.38867	-153.42535	1207.61853	1366.37341	-403.49554	1043.98145	1161.69617	-187.80942	1423.07288	1456.72949	-314.60773	1311.02734	1224.04407				-316.34845	525.18372	1355.80615	-261.74442	192.47516	1193.20300	-102.96246	933.22314	1055.90259	52.43299	490.23367	1278.07898	-250.27992	923.34009	1355.32971	252.97231	841.78613	1341.35718	
330	3.290	-53.55255	921.48236	1388.42249	170.70515	997.18500	1250.10986							-38.06898	1489.33325	1340.25281				-103.90079	1318.78027	1132.07764	-265.57077	1465.75317	1342.78870	-154.89093	1207.76062	1374.62964	-403.17361	1045.78784	1163.82935	-190.78748	1423.00647	1465.46057	-314.33643	1311.66040	1230.23572				-316.53207	527.81128	1364.86035	-261.83725	184.09125	1217.63965	-101.37254	933.59052	1063.65112	52.34771	489.67303	1281.65100	-250.02730	923.66711	1361.94189	254.76045	845.09113	1359.82288	
331	3.300	-54.42123	922.33026	1396.60425	172.13792	998.53259	1264.34644							-39.27260	1489.78687	1349.13342				-102.53547	1319.26648	1141.36255	-267.35873	1466.00366	1349.97778	-156.97429	1208.07861	1382.75220	-402.37955	1046.59851	1166.84558	-193.81894	1423.49402	1473.68127	-314.34152	1311.96277	1236.65759				-316.76431	530.00977	1372.80505	-263.84698	176.64566	1243.38892	-100.33687	933.48676	1072.14966	51.74889	489.36295	1286.59424	-251.62305	925.25598	1368.57642	255.65059	847.99243	1376.99377	
332	3.310	-55.69298	922.34485	1403.85376	174.24402	999.71893	1279.60461							-41.08915	1489.77917	1360.14893				-100.66539	1319.37476	1150.12488	-268.84381	1465.50989	1357.15161	-158.23169	1207.93701	1391.06714	-401.83197	1047.89185	1169.27246	-196.94989	1423.01367	1480.99609	-314.18851	1312.16626	1243.00732				-316.87698	531.81647	1381.29919	-266.90112	169.84348	1269.21484	-99.32754	933.75604	1079.36621	50.38369	488.91025	1290.31445	-251.44429	924.93250	1375.11560	256.28232	850.34149	1394.34241	
333	3.320	-57.23552	922.71320	1412.20703	175.26445	1001.28638	1293.15967							-42.51069	1489.80469	1368.34595				-100.12029	1319.42688	1159.18237	-270.54666	1465.34021	1364.26282	-159.63878	1207.50354	1399.11145	-401.70486	1048.66663	1173.24475	-199.51740	1422.57678	1487.69238	-314.45953	1311.53760	1249.43921				-316.70813	532.73761	1388.62878	-270.28183	163.03818	1295.26428	-98.45885	933.12537	1088.54846	49.97955	488.60574	1294.67969	-252.30991	924.93036	1382.07422	256.59906	853.15076	1412.34180	
